<svg width="158" height="82" viewBox="0 0 158 82" fill="none" xmlns="http://www.w3.org/2000/svg">
<path d="M0.851318 68.1627V13.8899L79.0046 0.866516L157.158 13.8899V68.1627L79.0046 81.1861L0.851318 68.1627V68.1627Z" fill="#020202"/>
<path fill-rule="evenodd" clip-rule="evenodd" d="M78.7263 0H78.9997H79.2732L156.58 12.8921L157.999 13.1284V68.8847L156.58 69.121L79.2732 82H78.9997H78.7263L1.41955 69.121L0 68.8847V13.1284L1.41955 12.9315L78.7263 0ZM156.28 14.6119L78.9997 1.73296L1.69297 14.6119V67.4406L78.9997 80.3196L156.28 67.4406V14.6119Z" fill="#B17E6E"/>
<path d="M8.22854 63.1345C8.13783 63.1474 8.04576 63.1474 7.95505 63.1345C7.86699 63.1083 7.78351 63.0684 7.70761 63.0163C7.62443 62.9881 7.54554 62.9483 7.47319 62.8982L7.26481 62.7275C6.9962 62.4567 6.85016 62.0863 6.86109 61.7035C6.84806 61.6165 6.84806 61.528 6.86109 61.4409C6.87293 61.3497 6.89932 61.2611 6.93923 61.1784C6.97778 61.097 7.02127 61.018 7.06946 60.9421C7.11446 60.8634 7.17161 60.7925 7.23877 60.732C7.63146 60.3454 8.21274 60.2271 8.72343 60.43C8.88793 60.5029 9.03796 60.6052 9.16622 60.732C9.42941 60.9848 9.57578 61.3371 9.56994 61.7035C9.57026 62.0727 9.42503 62.4269 9.16622 62.6881L8.95785 62.8588C8.88262 62.9038 8.80428 62.9433 8.72343 62.977C8.64147 63.0174 8.55347 63.044 8.46296 63.0557C8.38906 63.0934 8.31008 63.1199 8.22854 63.1345V63.1345Z" fill="#B17E6E"/>
<path fill-rule="evenodd" clip-rule="evenodd" d="M8.16436 27.202C7.43469 27.2371 6.86122 27.8441 6.86204 28.5805C6.8949 29.2914 7.45917 29.8602 8.16436 29.8933C8.89486 29.8942 9.49701 29.3161 9.5318 28.5805C9.5318 27.8192 8.91957 27.202 8.16436 27.202ZM6.86157 36.8776C6.89443 36.1667 7.4587 35.5979 8.16389 35.5648C8.89439 35.564 9.49654 36.1421 9.53132 36.8776C9.53132 37.639 8.9191 38.2561 8.16389 38.2561C7.43422 38.2211 6.86074 37.614 6.86157 36.8776ZM8.16389 43.7963C7.43422 43.8314 6.86074 44.4384 6.86157 45.1748C6.90033 45.8831 7.46132 46.4486 8.16389 46.4877C8.89176 46.4819 9.49014 45.9074 9.53132 45.1748C9.53132 44.4135 8.9191 43.7963 8.16389 43.7963ZM8.16389 52.146C7.4587 52.1791 6.89443 52.7479 6.86157 53.4588C6.86074 54.1952 7.43422 54.8022 8.16389 54.8373C8.9191 54.8373 9.53132 54.2201 9.53132 53.4588C9.49654 52.7232 8.89439 52.1451 8.16389 52.146Z" fill="#B17E6E"/>
<path d="M8.22939 21.6619H7.95589C7.87006 21.6478 7.78671 21.6213 7.70844 21.5831C7.62469 21.5504 7.5458 21.5063 7.47402 21.4518C7.39355 21.4102 7.32259 21.352 7.26564 21.2812C7.19199 21.2012 7.13448 21.1076 7.09634 21.0055C7.04263 20.9329 6.99882 20.8535 6.9661 20.7692C6.89325 20.604 6.85766 20.4247 6.86191 20.244C6.85607 19.8776 7.00245 19.5254 7.26564 19.2725C7.38789 19.1385 7.53952 19.0351 7.70844 18.9706C8.04343 18.8387 8.41534 18.8387 8.75033 18.9706C8.91706 19.0393 9.06783 19.1421 9.19313 19.2725C9.45633 19.5254 9.6027 19.8776 9.59686 20.244C9.59491 20.4241 9.55958 20.6022 9.49267 20.7692C9.42452 20.9372 9.32252 21.0892 9.19313 21.2155C9.13328 21.2834 9.06291 21.341 8.98475 21.3862L8.75033 21.5175C8.6682 21.5575 8.58028 21.5841 8.48986 21.5962L8.22939 21.6619Z" fill="#B17E6E"/>
<path fill-rule="evenodd" clip-rule="evenodd" d="M77.8318 9.05344C78.0453 9.35622 78.376 9.55366 78.742 9.59683L79.0155 9.62308C79.6654 9.59539 80.208 9.1141 80.3179 8.46778C80.4361 7.71914 79.9381 7.01286 79.1978 6.87925C78.8381 6.79872 78.4614 6.87559 78.161 7.09078C77.8607 7.30597 77.6648 7.63935 77.622 8.00829C77.5421 8.37091 77.6183 8.75067 77.8318 9.05344ZM69.7534 9.66243C69.6278 8.91205 70.1291 8.20099 70.8735 8.0739C71.2332 7.99337 71.6099 8.07023 71.9103 8.28543C72.2106 8.50062 72.4065 8.834 72.4493 9.20294C72.575 9.95332 72.0736 10.6644 71.3293 10.7915H71.1079C70.4844 10.8022 69.9327 10.3864 69.7665 9.78059L69.7534 9.66243ZM85.4873 9.38684C85.3617 10.1372 85.863 10.8483 86.6074 10.9754L86.6595 10.9885H86.8809C87.5286 10.967 88.0725 10.4901 88.1832 9.84633C88.2631 9.48371 88.1869 9.10395 87.9734 8.80118C87.7599 8.49841 87.4292 8.30097 87.0632 8.25779C86.7035 8.17727 86.3267 8.25413 86.0264 8.46932C85.726 8.68452 85.5302 9.0179 85.4873 9.38684ZM61.8628 11.0541C61.7829 10.6915 61.8591 10.3117 62.0726 10.009C62.2861 9.70619 62.6168 9.50875 62.9828 9.46558C63.7272 9.33893 64.4326 9.84431 64.5587 10.5946C64.6769 11.3433 64.1789 12.0495 63.4386 12.1832H63.2042C62.5763 12.1884 62.0341 11.7412 61.9149 11.1198L61.8628 11.0541ZM93.2977 10.7784C93.1721 11.5287 93.6734 12.2398 94.4177 12.3669L94.4698 12.38H94.6913C95.3432 12.3573 95.8884 11.8737 95.9936 11.2247C96.0693 10.864 95.9911 10.4879 95.7781 10.1882C95.565 9.88851 95.2368 9.69295 94.8736 9.64932C94.5139 9.5688 94.1371 9.64566 93.8368 9.86085C93.5364 10.076 93.3405 10.4094 93.2977 10.7784ZM54.0458 12.4588C53.9202 11.7084 54.4215 10.9973 55.1659 10.8702C55.9103 10.7436 56.6156 11.249 56.7417 11.9993C56.8673 12.7497 56.366 13.4607 55.6217 13.5878H55.3873C54.7306 13.581 54.1697 13.1088 54.0458 12.4588ZM101.218 12.1043C101.108 12.8555 101.61 13.5591 102.351 13.6929L102.403 13.706H102.625C103.276 13.6833 103.822 13.1996 103.927 12.5507C104.045 11.7978 103.539 11.0895 102.794 10.9622C102.047 10.8436 101.344 11.3528 101.218 12.1043ZM46.1792 13.8111C46.0532 13.0578 46.5531 12.343 47.2992 12.2095C47.6589 12.1289 48.0357 12.2058 48.336 12.421C48.6364 12.6362 48.8322 12.9696 48.8751 13.3385C48.955 13.6991 48.8804 14.077 48.6697 14.3793C48.459 14.6816 48.1317 14.8805 47.7681 14.927H47.5336C46.8762 14.9277 46.3095 14.4608 46.1792 13.8111ZM109.302 14.4669C109.515 14.7665 109.843 14.9621 110.206 15.0057L110.519 15.032C111.171 15.0093 111.716 14.5256 111.821 13.8767C111.947 13.1263 111.446 12.4152 110.701 12.2881C110.336 12.2196 109.959 12.3021 109.656 12.517C109.352 12.7319 109.147 13.0611 109.086 13.4303C109.011 13.791 109.089 14.1672 109.302 14.4669ZM38.3281 15.1502C38.2482 14.7876 38.3245 14.4078 38.538 14.105C38.7514 13.8023 39.0821 13.6048 39.4481 13.5616C39.8078 13.4811 40.1846 13.558 40.4849 13.7732C40.7853 13.9884 40.9811 14.3217 41.0239 14.6907C41.1496 15.4411 40.6482 16.1521 39.9039 16.2792H39.6695C39.0011 16.306 38.4212 15.818 38.3281 15.1502ZM117.16 15.7883C117.373 16.0911 117.704 16.2885 118.07 16.3317L118.331 16.3579C118.983 16.3352 119.528 15.8516 119.633 15.2026C119.759 14.4523 119.257 13.7412 118.513 13.6141C117.775 13.5028 117.083 14.0028 116.95 14.7431C116.87 15.1058 116.947 15.4855 117.16 15.7883ZM30.4618 16.4892C30.3362 15.7388 30.8375 15.0278 31.5818 14.9007C31.9415 14.8202 32.3183 14.897 32.6186 15.1122C32.919 15.3274 33.1148 15.6608 33.1576 16.0297C33.2375 16.3923 33.1613 16.7721 32.9478 17.0749C32.7343 17.3776 32.4036 17.5751 32.0376 17.6183H31.8162C31.1529 17.6229 30.5818 17.1469 30.4618 16.4892ZM124.816 16.0691C124.69 16.8195 125.192 17.5306 125.936 17.6577L126.21 17.6839C126.861 17.6612 127.407 17.1776 127.512 16.5286C127.592 16.166 127.516 15.7863 127.302 15.4835C127.089 15.1807 126.758 14.9833 126.392 14.9401C125.648 14.8135 124.942 15.3188 124.816 16.0691ZM22.5956 17.8283C22.478 17.0754 22.9832 16.3671 23.7287 16.2398C24.4731 16.1132 25.1785 16.6185 25.3046 17.3688C25.4228 18.1175 24.9248 18.8238 24.1845 18.9574H23.9501C23.2904 18.9517 22.7251 18.4804 22.5956 17.8283ZM132.682 17.3951C132.557 18.1455 133.058 18.8566 133.802 18.9837L133.92 18.9968H134.141C134.789 18.9753 135.333 18.4984 135.443 17.8546C135.524 17.4817 135.439 17.0919 135.211 16.7869C134.984 16.4818 134.636 16.2917 134.258 16.2661C133.514 16.1394 132.808 16.6448 132.682 17.3951ZM141.668 20.3096C140.924 20.1825 140.423 19.4715 140.548 18.7211C140.606 18.3584 140.805 18.0338 141.1 17.8193C141.396 17.6049 141.765 17.5183 142.124 17.5789C142.87 17.7063 143.375 18.4145 143.257 19.1675C143.152 19.8164 142.607 20.3001 141.955 20.3228H141.734L141.668 20.3096ZM14.7427 19.1674C14.617 18.417 15.1184 17.706 15.8627 17.5789C16.6054 17.4598 17.306 17.9617 17.4386 18.7079C17.5184 19.0706 17.4422 19.4503 17.2287 19.7531C17.0152 20.0559 16.6845 20.2533 16.3185 20.2965H16.0841C15.4157 20.3233 14.8358 19.8352 14.7427 19.1674Z" fill="#B17E6E"/>
<path d="M149.769 21.6487C149.405 21.6546 149.056 21.5071 148.805 21.2418C148.679 21.1125 148.578 20.9612 148.506 20.7954C148.439 20.6284 148.403 20.4503 148.401 20.2703C148.395 20.1785 148.395 20.0863 148.401 19.9946L148.467 19.6926C148.535 19.5245 148.637 19.3725 148.766 19.2462C148.891 19.1158 149.042 19.013 149.209 18.9443C149.717 18.7147 150.314 18.836 150.694 19.2462C150.957 19.4991 151.103 19.8513 151.097 20.2177C151.102 20.3984 151.066 20.5778 150.993 20.7429C150.96 20.8268 150.916 20.9062 150.863 20.9792C150.819 21.0582 150.761 21.1292 150.694 21.1892C150.461 21.4641 150.127 21.6303 149.769 21.6487Z" fill="#B17E6E"/>
<path fill-rule="evenodd" clip-rule="evenodd" d="M149.756 27.2545C149.025 27.2537 148.423 27.8318 148.388 28.5674C148.388 29.3287 149 29.9458 149.756 29.9458C150.485 29.9108 151.059 29.3038 151.058 28.5674C151.025 27.8565 150.461 27.2876 149.756 27.2545ZM148.389 36.8646C148.378 36.49 148.519 36.1271 148.779 35.8596C149.04 35.5921 149.397 35.443 149.769 35.4468C150.499 35.4818 151.072 36.0888 151.071 36.8252C151.079 37.5667 150.504 38.1816 149.769 38.2168C149.019 38.2242 148.403 37.6208 148.389 36.8646ZM148.794 44.1955C148.534 44.4544 148.389 44.807 148.389 45.1749C148.424 45.9155 149.034 46.4956 149.769 46.4877C150.474 46.4546 151.039 45.8858 151.071 45.1749C151.072 44.4385 150.499 43.8315 149.769 43.7964C149.404 43.7929 149.053 43.9366 148.794 44.1955ZM149.756 52.1591C149.026 52.1583 148.423 52.7364 148.389 53.472C148.423 54.2075 149.026 54.7856 149.756 54.7848C150.461 54.7517 151.026 54.1828 151.058 53.472C151.026 52.7611 150.461 52.1922 149.756 52.1591Z" fill="#B17E6E"/>
<path d="M149.769 63.1477C149.682 63.1612 149.595 63.1612 149.508 63.1477C149.418 63.1353 149.33 63.1087 149.248 63.0689C148.709 62.8674 148.365 62.334 148.401 61.7561C148.395 61.6643 148.395 61.5722 148.401 61.4804L148.479 61.2178C148.552 61.052 148.653 60.9007 148.779 60.7715C148.907 60.6484 149.058 60.5504 149.222 60.4826C149.648 60.2623 150.16 60.2959 150.555 60.5702C150.95 60.8446 151.163 61.3152 151.11 61.7955C151.123 61.8825 151.123 61.971 151.11 62.058C151.097 62.1488 151.07 62.2372 151.032 62.3206C150.998 62.4045 150.955 62.4839 150.902 62.5569C150.858 62.6361 150.8 62.7071 150.732 62.767C150.606 62.8927 150.455 62.991 150.29 63.0558C150.211 63.0936 150.128 63.1202 150.042 63.1346C149.952 63.1519 149.86 63.1563 149.769 63.1477V63.1477Z" fill="#B17E6E"/>
<path fill-rule="evenodd" clip-rule="evenodd" d="M15.8627 64.4604C15.1184 64.3333 14.617 63.6222 14.7427 62.8718C14.7939 62.5043 14.99 62.1731 15.2866 61.9532C15.5832 61.7333 15.9552 61.6433 16.3185 61.7034C17.0628 61.8305 17.5642 62.5416 17.4386 63.292C17.3278 63.9357 16.784 64.4126 16.1362 64.4341H15.9148L15.8627 64.4604ZM132.898 63.6076C132.685 63.9073 132.606 64.2835 132.682 64.6442C132.769 65.3172 133.351 65.8124 134.024 65.7864H134.258C134.998 65.6528 135.496 64.9465 135.378 64.1978C135.252 63.4475 134.547 62.9421 133.802 63.0688C133.439 63.1124 133.111 63.308 132.898 63.6076ZM23.7286 65.7995C22.9831 65.6722 22.4779 64.9639 22.5955 64.211C22.7216 63.4607 23.427 62.9553 24.1713 63.0819C24.9168 63.2093 25.422 63.9175 25.3043 64.6705C25.1945 65.3168 24.6519 65.7981 24.002 65.8258L23.7286 65.7995ZM125.028 64.9085C124.817 65.2184 124.74 65.6019 124.816 65.9702C124.933 66.617 125.506 67.0771 126.157 67.0467H126.392C126.755 67.0031 127.083 66.8076 127.296 66.5079C127.509 66.2082 127.588 65.832 127.512 65.4713C127.385 64.7198 126.683 64.2106 125.936 64.3292C125.568 64.3894 125.24 64.5987 125.028 64.9085ZM31.5819 67.1386C31.2159 67.0954 30.8852 66.898 30.6717 66.5952C30.4582 66.2924 30.382 65.9127 30.4619 65.5501C30.5944 64.8039 31.295 64.3019 32.0377 64.421C32.782 64.5481 33.2833 65.2592 33.1577 66.0096C33.0782 66.6725 32.5178 67.1697 31.8554 67.1649L31.5819 67.1386ZM118.072 65.7076C117.332 65.8412 116.834 66.5475 116.952 67.2961C117.075 67.9414 117.629 68.4122 118.281 68.4252H118.515C118.884 68.3854 119.218 68.1894 119.434 67.8862C119.65 67.583 119.728 67.2013 119.648 66.8367C119.522 66.0863 118.817 65.581 118.072 65.7076ZM39.4502 68.4909C38.7292 68.3636 38.2355 67.6865 38.3301 66.9549C38.4565 66.2033 39.159 65.6941 39.906 65.8127C40.6521 65.9462 41.1521 66.6611 41.026 67.4143C40.9152 68.0581 40.3714 68.535 39.7237 68.5565H39.5023L39.4502 68.4909ZM110.206 67.0335C109.465 67.1671 108.967 67.8734 109.086 68.6221C109.206 69.2798 109.777 69.7558 110.44 69.7511H110.701C111.059 69.6979 111.38 69.4963 111.585 69.1948C111.79 68.8933 111.861 68.5192 111.781 68.1626C111.739 67.7936 111.543 67.4602 111.242 67.245C110.942 67.0299 110.565 66.953 110.206 67.0335ZM47.3035 69.8299C46.5749 69.6963 46.0807 69.0069 46.1834 68.2676C46.3095 67.5173 47.0149 67.0119 47.7593 67.1386C48.1253 67.1817 48.456 67.3792 48.6695 67.6819C48.883 67.9847 48.9592 68.3645 48.8793 68.7271C48.7938 69.3848 48.235 69.8749 47.577 69.8693H47.3425L47.3035 69.8299ZM101.439 68.8941C101.223 69.1942 101.143 69.5722 101.219 69.935C101.334 70.5979 101.906 71.0807 102.574 71.0772H102.795C103.536 70.9434 104.038 70.2398 103.928 69.4886C103.802 68.7383 103.097 68.2329 102.352 68.3596C101.987 68.3998 101.655 68.594 101.439 68.8941ZM55.1658 71.169C54.4214 71.0419 53.9201 70.3308 54.0457 69.5804C54.1718 68.8301 54.8772 68.3248 55.6216 68.4514C55.9876 68.4946 56.3183 68.692 56.5318 68.9948C56.7453 69.2976 56.8215 69.6773 56.7416 70.0399C56.6561 70.6977 56.0973 71.1877 55.4393 71.1821H55.2048L55.1658 71.169ZM93.5746 70.2289C93.3611 70.5317 93.2849 70.9115 93.3647 71.2741C93.4579 71.9419 94.0377 72.4299 94.7062 72.4031H94.9276C95.6691 72.2694 96.1709 71.5658 96.0606 70.8146C95.9345 70.0643 95.2291 69.5589 94.4848 69.6856C94.1188 69.7287 93.7881 69.9262 93.5746 70.2289ZM63.0347 72.5082C62.663 72.466 62.3272 72.2648 62.1129 71.9558C61.8985 71.6468 61.8264 71.2598 61.9147 70.8934C61.9576 70.5244 62.1534 70.191 62.4538 69.9759C62.7541 69.7607 63.1308 69.6838 63.4905 69.7643C64.2307 69.8979 64.7287 70.6042 64.6105 71.3529C64.4961 71.9966 63.9562 72.4756 63.3082 72.5082H63.0347ZM86.6184 71.0115C85.8742 71.1386 85.3728 71.8496 85.4985 72.6V72.5869C85.612 73.2449 86.1773 73.7262 86.8398 73.7291H87.0743C87.4374 73.6854 87.7656 73.4899 87.9787 73.1902C88.1917 72.8905 88.27 72.5143 88.1942 72.1536C88.0679 71.4021 87.3654 70.8929 86.6184 71.0115ZM70.8864 73.9129C70.4935 73.8761 70.1384 73.6618 69.9207 73.3301C69.7031 72.9984 69.6463 72.5851 69.7663 72.2063C69.8989 71.4601 70.5995 70.9581 71.3422 71.0772C72.0865 71.2043 72.5878 71.9154 72.4622 72.6657C72.3827 73.3287 71.8223 73.8259 71.1598 73.821L70.8864 73.9129ZM77.6307 73.9129C77.5051 73.1625 78.0064 72.4515 78.7507 72.3244C79.4951 72.1977 80.2005 72.7031 80.3266 73.4534C80.4522 74.2038 79.9509 74.9149 79.2066 75.042H78.9721C78.3137 75.0403 77.7499 74.5657 77.6307 73.9129ZM140.761 62.2862C140.547 62.589 140.471 62.9687 140.551 63.3313C140.646 64.0259 141.265 64.523 141.958 64.4604H142.127C142.867 64.3268 143.365 63.6205 143.247 62.8718C143.121 62.1215 142.415 61.6162 141.671 61.7428C141.305 61.786 140.974 61.9834 140.761 62.2862Z" fill="#B17E6E"/>
<path fill-rule="evenodd" clip-rule="evenodd" d="M47.602 51.332H52.0038L51.9908 25.259L47.3545 26.5719C47.5368 28.9087 47.602 31.1274 47.602 33.333V51.332ZM97.1388 26.6638C96.6717 26.381 96.1337 26.2397 95.589 26.2568C94.9433 26.232 94.3148 26.4697 93.8447 26.9165C93.3745 27.3633 93.102 27.9818 93.0885 28.633C93.1154 29.2613 93.391 29.8525 93.8535 30.2744C94.3161 30.6963 94.9272 30.9137 95.55 30.878C96.8923 30.9463 98.0657 29.9738 98.2589 28.633C98.2721 27.8192 97.8422 27.0634 97.1388 26.6638ZM106.207 51.7259C108.734 51.7259 110.805 49.7829 111.86 48.5619V48.5751C111.873 50.248 113.196 51.6109 114.855 51.6602C116.377 51.6281 117.789 50.8551 118.645 49.586L118.358 49.2446C118.12 49.4114 117.84 49.507 117.551 49.5203C116.847 49.5203 116.248 49.2446 116.248 47.6823V38.7419C116.248 34.9347 113.37 33.7794 110.101 33.7794C107.397 33.7902 104.728 34.4045 102.287 35.5779L103.512 40.0679C103.512 40.0679 106.819 34.3964 109.346 34.3964C110.713 34.3964 111.873 35.8274 111.873 38.0723V41.4595C104.176 42.4441 101.714 44.886 101.714 47.5117C101.752 48.6726 102.247 49.7705 103.091 50.5617C103.934 51.3529 105.056 51.772 106.207 51.7259ZM125.663 33.8056L125.949 39.057L125.974 39.0051C126.926 36.993 128.434 33.8056 131.158 33.8056C131.733 33.8111 132.303 33.9223 132.838 34.1338L132.07 37.8361C131.401 37.5512 130.686 37.391 129.96 37.3634C128.284 37.5395 126.811 38.5636 126.053 40.081V51.3321H121.495V40.5405C121.511 38.6207 121.429 36.7014 121.248 34.7903L125.663 33.8056ZM108.732 49.5597C109.954 49.4491 111.08 48.8483 111.858 47.8924V42.129C107.287 42.7723 106.232 44.479 106.232 46.4089C106.232 48.3387 107.326 49.5072 108.732 49.5072V49.5597ZM93.375 40.6981C93.3776 38.734 93.282 36.771 93.0885 34.8165L97.764 33.8319V51.319H93.375V40.6981ZM83.0129 47.9187C84.7277 43.4953 85.8405 38.8583 86.3208 34.1339L90.4623 34.3045C87.3264 39.9655 84.5174 45.8042 82.0491 51.7916L80.3952 51.9885L73.037 34.6196L77.8817 34.0026L83.0129 47.9187ZM66.0153 47.8399C65.2376 48.7958 64.1113 49.3966 62.8898 49.5072C61.4833 49.5072 60.3893 48.3387 60.3893 46.4089C60.3893 44.479 61.4442 42.7723 66.0153 42.129V47.8399ZM66.0178 48.5619C64.9629 49.7829 62.8922 51.7259 60.3657 51.7259C59.2143 51.772 58.0924 51.3529 57.2488 50.5617C56.4053 49.7705 55.9099 48.6726 55.8726 47.5117C55.8726 44.886 58.334 42.4441 66.0308 41.4595V38.0723C66.0308 35.8274 64.8718 34.3964 63.5043 34.3964C60.9778 34.3964 57.6698 40.0679 57.6698 40.0679L56.4456 35.5779C58.8867 34.4045 61.5552 33.7902 64.2597 33.7794C67.5285 33.7794 70.4067 34.9347 70.4067 38.7419V47.6823C70.4067 49.2446 71.0058 49.5203 71.709 49.5203C71.9986 49.507 72.2785 49.4114 72.5165 49.2446L72.803 49.586C71.9646 50.8763 70.5556 51.6747 69.0262 51.7259C67.3369 51.6829 65.9959 50.2784 66.0178 48.5751V48.5619ZM29.8647 56.5834L29.8441 56.5832C30.99 56.5692 31.4796 55.2409 31.4796 52.1591V49.1658C29.448 50.4918 28.0414 52.3954 28.0414 54.1677C28.0414 55.6288 28.7616 56.5714 29.8441 56.5832L29.8256 56.5834H29.8647ZM43.8854 31.7483L43.8758 31.8363L43.9409 31.8232C43.9225 31.7981 43.904 31.7732 43.8854 31.7483ZM44.4358 26.7031L43.8854 31.7483C41.9427 29.1511 38.9141 27.6063 35.6841 27.5696V38.9782C38.2506 38.6308 40.7946 38.131 43.3027 37.4815L42.886 41.4201C40.5922 40.4762 38.158 39.926 35.6841 39.7921V51.7521C35.6841 55.218 33.6785 57.463 30.657 57.463C29.8135 57.5368 28.9798 57.2375 28.3724 56.6428C27.765 56.0482 27.4438 55.2168 27.4924 54.3647C27.4924 51.949 29.0031 49.5991 31.5036 47.8005L31.2561 27.5696L28.0393 27.4908L27.7528 26.7031H44.4358Z" fill="#B17E6E"/>
</svg>
